# xmcd
#
# Track frame offsets:
#	150
#	19575
#	34460
#	47360
#	61130
#	73520
#	85782
#	104410
#	114715
#	127765
#	144340
#	158447
#
# Disc length: 2294 seconds
#
# Revision: 2
# Processed by: cddbd v1.5PL3 Copyright (c) Steve Scherf et al.
# Submitted via: EasyCDDAExtractor 7.0.5.1
#
DISCID=9008f40c
DTITLE=Grupo Tradição - Habanera Brasileira
DYEAR=2002
DGENRE=Sertanejo
TTITLE0=Habanera das Meninas Carinhosas
TTITLE1=É Melhor Cê Voltar pra Mim
TTITLE2=Ajoelha e Chora
TTITLE3=O Amor Se Vai
TTITLE4=Eu Já Biquei
TTITLE5=Pode Rebolar
TTITLE6=Linda
TTITLE7=Hei!
TTITLE8=O Caldeirão
TTITLE9=A Brasileira
TTITLE10=Vamos Sair do Chão
TTITLE11=Tindolelê - Ilariê
EXTD=
EXTT0=
EXTT1=
EXTT2=
EXTT3=
EXTT4=
EXTT5=
EXTT6=
EXTT7=
EXTT8=
EXTT9=
EXTT10=
EXTT11=
PLAYORDER=
